HIERARCHY
ROOT Hips
{
	OFFSET 0.000000 0.000000 0.000000
	CHANNELS 6 Xposition Yposition Zposition Zrotation Yrotation Xrotation 
	JOINT LHipJoint
	{
		OFFSET 0.000000 0.000000 0.000000
		CHANNELS 3 Zrotation Yrotation Xrotation
		JOINT LeftUpLeg
		{
			OFFSET 1.363060 -1.794630 0.839290
			CHANNELS 3 Zrotation Yrotation Xrotation
			JOINT LeftLeg
			{
				OFFSET 2.448110 -6.726130 0.000000
				CHANNELS 3 Zrotation Yrotation Xrotation
				JOINT LeftFoot
				{
					OFFSET 2.562200 -7.039590 0.000000
					CHANNELS 3 Zrotation Yrotation Xrotation
					JOINT LeftToeBase
					{
						OFFSET 0.157640 -0.433110 2.322550
						CHANNELS 3 Zrotation Yrotation Xrotation
						End Site
						{
							OFFSET 0.000000 0.000000 0.000000
						}
					}
				}
			}
		}
	}
	JOINT RHipJoint
	{
		OFFSET 0.000000 0.000000 0.000000
		CHANNELS 3 Zrotation Yrotation Xrotation
		JOINT RightUpLeg
		{
			OFFSET -1.305520 -1.794630 0.839290
			CHANNELS 3 Zrotation Yrotation Xrotation
			JOINT RightLeg
			{
				OFFSET -2.542530 -6.985550 0.000000
				CHANNELS 3 Zrotation Yrotation Xrotation
				JOINT RightFoot
				{
					OFFSET -2.568260 -7.056230 0.000000
					CHANNELS 3 Zrotation Yrotation Xrotation
					JOINT RightToeBase
					{
						OFFSET -0.164730 -0.452590 2.363150
						CHANNELS 3 Zrotation Yrotation Xrotation
						End Site
						{
							OFFSET 0.000000 0.000000 0.000000
						}
					}
				}
			}
		}
	}
}
MOTION
Frames: 14
Frame Time: 0.008333
2.497940 17.269352 1.960596 -5.508561 -71.059709 12.111534 -9.980647 2.094350 5.251997 -8.118831 -11.052168 -13.087039 -1.596842 -0.114024 15.259619 1.445284 7.335385 -9.429229 -0.263900 0.000000 -34.067800 9.641939 -2.213594 -1.255601 7.101128 -14.131073 -9.403362 1.003610 -1.047617 22.936220 -3.061876 -16.766302 -1.742071 -2.606800 0.000000 -66.009499
2.508063 17.279976 2.005941 -5.996963 -71.231337 12.467500 -10.040902 2.105299 5.183664 -8.123024 -10.700058 -12.690594 -1.599560 -0.136775 14.723321 1.410254 7.188845 -9.215748 -0.230799 0.000000 -34.030600 9.695990 -2.098292 -1.333922 7.080553 -14.201202 -11.718891 0.869197 -1.360709 26.661222 -2.997665 -16.539518 -1.242462 -2.664700 0.000000 -65.482400
2.518221 17.291539 2.050152 -6.470929 -71.519382 12.915459 -10.104637 2.112073 5.107433 -8.139938 -10.256290 -12.409437 -1.603189 -0.168761 14.138263 1.375354 7.048301 -8.960813 -0.191800 -0.000001 -34.020800 9.742106 -1.964078 -1.349856 7.086489 -14.110467 -14.171077 0.756884 -1.626434 29.990258 -2.900650 -16.091454 -0.789034 -2.672601 -0.000000 -64.907401
2.528448 17.304197 2.093534 -6.965311 -71.921023 13.493524 -10.173354 2.114063 5.024880 -8.161258 -9.721956 -12.249778 -1.607225 -0.210148 13.504683 1.340508 6.913233 -8.666376 -0.147400 -0.000001 -34.031201 9.770898 -1.811970 -1.304357 7.135219 -13.852719 -16.752827 0.674736 -1.846948 32.864253 -2.776952 -15.431980 -0.445113 -2.617600 0.000000 -64.460100
2.538933 17.318011 2.136316 -7.510013 -72.431919 14.234510 -10.247445 2.110120 4.938332 -8.183092 -9.109536 -12.216295 -1.611216 -0.260944 12.822991 1.306944 6.791073 -8.335495 -0.098200 0.000000 -34.047900 9.775159 -1.642664 -1.198489 7.235421 -13.423737 -19.462812 0.627545 -2.026161 35.240277 -2.633363 -14.591053 -0.240922 -2.503001 0.000000 -64.291800
2.550001 17.332888 2.178685 -8.135407 -73.045434 15.171174 -10.327128 2.098701 4.849017 -8.203816 -8.434805 -12.311967 -1.614950 -0.320725 12.096643 1.276182 6.690550 -7.973714 -0.044700 0.000000 -34.053800 9.749012 -1.457258 -1.032245 7.389453 -12.816089 -22.296627 0.617547 -2.167811 37.081513 -2.477323 -13.615593 -0.169771 -2.346599 -0.000000 -64.500900
2.561917 17.348668 2.220718 -8.873679 -73.752710 16.337664 -10.412564 2.077947 4.756981 -8.223194 -7.716238 -12.538700 -1.618327 -0.388537 11.332879 1.249899 6.620969 -7.588224 0.012400 -0.000000 -34.032900 9.687695 -1.257823 -0.804490 7.592484 -12.019724 -25.243348 0.645301 -2.274573 38.355002 -2.316690 -12.563461 -0.194946 -2.173800 0.000000 -65.112800
2.575131 17.365052 2.262451 -9.762941 -74.544337 17.770155 -10.504417 2.045648 4.659636 -8.241646 -6.970480 -12.893663 -1.621353 -0.462685 10.542398 1.229514 6.589623 -7.187641 0.072700 0.000001 -33.972799 9.587249 -1.048096 -0.513585 7.832242 -11.022272 -28.281644 0.710247 -2.347685 39.030446 -2.159118 -11.497085 -0.255917 -2.012200 -0.000000 -66.077800
2.590183 17.381640 2.303723 -10.841850 -75.411499 19.497132 -10.603616 1.998755 4.548530 -8.262350 -6.207887 -13.357168 -1.624332 -0.540837 9.733206 1.215892 6.600985 -6.780018 0.135900 0.000000 -33.865900 9.445487 -0.833483 -0.160890 8.083605 -9.814810 -31.372588 0.811155 -2.387485 39.089608 -2.011047 -10.474659 -0.288262 -1.883500 -0.000000 -67.218101
2.606688 17.398269 2.344781 -12.170960 -76.332904 21.597230 -10.712648 1.937202 4.431383 -8.276954 -5.452905 -13.973909 -1.626679 -0.620569 8.941845 1.209530 6.651898 -6.376195 0.201600 -0.000000 -33.724300 9.258572 -0.624385 0.268388 8.332569 -8.382681 -34.519476 0.945884 -2.389303 38.505860 -1.880505 -9.568680 -0.187988 -1.816200 0.000001 -68.482200
2.625609 17.414303 2.385158 -13.787088 -77.300529 24.077976 -10.833072 1.856100 4.288450 -8.296460 -4.698997 -14.691344 -1.629676 -0.698626 8.170709 1.209571 6.736797 -5.983119 0.268900 0.000000 -33.549000 9.028308 -0.429334 0.766156 8.530178 -6.735258 -37.662494 1.112756 -2.351284 37.296614 -1.769262 -8.813367 0.091048 -1.816600 -0.000001 -69.525900
2.646807 17.429474 2.424645 -15.725379 -78.293179 26.973593 -10.966245 1.753628 4.117287 -8.324428 -3.959722 -15.512239 -1.633707 -0.772692 7.440487 1.215521 6.849344 -5.606199 0.337500 -0.000000 -33.355600 8.756505 -0.260017 1.337409 8.639203 -4.891451 -40.790640 1.309871 -2.266695 35.478795 -1.678643 -8.243532 0.615788 -1.897400 -0.000000 -70.247700
2.670185 17.443458 2.463001 -18.001216 -79.288259 30.292630 -11.111978 1.627456 3.913494 -8.369244 -3.245579 -16.426037 -1.639719 -0.841253 6.764985 1.226268 6.980946 -5.248377 0.406600 0.000000 -33.158500 8.448168 -0.127048 1.982386 8.620154 -2.893089 -43.898949 1.536276 -2.128077 33.094658 -1.605249 -7.864699 1.419826 -2.063600 -0.000001 -70.578700
2.695349 17.455964 2.500092 -20.616624 -80.258553 34.032799 -11.268715 1.475958 3.676525 -8.437612 -2.566682 -17.429049 -1.648882 -0.903893 6.157775 1.240036 7.119207 -4.911747 0.475300 0.000000 -32.972700 8.110420 -0.039142 2.699318 8.445655 -0.802088 -46.999624 1.792253 -1.927209 30.205147 -1.541424 -7.655157 2.504346 -2.313000 0.000000 -70.523300
